<?xml version="1.0" standalone="no"?>
<!DOCTYPE svg PUBLIC "-//W3C//DTD SVG 20010904//EN"
 "http://www.w3.org/TR/2001/REC-SVG-20010904/DTD/svg10.dtd">
<svg version="1.0" xmlns="http://www.w3.org/2000/svg"
 width="259.000000pt" height="259.000000pt" viewBox="0 0 259.000000 259.000000"
 preserveAspectRatio="xMidYMid meet">

<g transform="translate(0.000000,259.000000) scale(0.100000,-0.100000)"
fill="#000000" stroke="none">
<path d="M1182 2173 c-51 -186 -93 -342 -92 -348 0 -5 43 -34 95 -63 l95 -54
96 54 c109 60 103 44 64 190 -13 48 -21 90 -17 94 10 11 144 -35 223 -77 70
-37 114 -44 114 -19 0 12 -106 75 -170 100 -30 12 -86 30 -124 40 l-70 17 -17
64 c-29 102 -32 100 99 73 266 -55 512 -234 645 -471 45 -80 81 -170 102 -260
16 -65 20 -73 48 -82 55 -20 60 -16 52 36 -32 214 -168 465 -331 611 -85 76
-227 164 -327 203 -88 34 -239 69 -299 69 -37 0 -38 1 -52 53 -8 28 -18 64
-22 80 -3 15 -9 27 -13 27 -4 0 -48 -152 -99 -337z m173 -171 c20 -73 34 -139
31 -147 -3 -8 -28 -26 -56 -40 l-50 -25 1 232 1 233 18 -60 c10 -33 35 -120
55 -193z"/>
<path d="M1060 2330 c-318 -68 -580 -270 -725 -560 -62 -125 -92 -226 -110
-376 l-7 -51 -66 -18 c-37 -10 -73 -21 -81 -25 -17 -9 -41 -2 264 -85 361 -99
419 -115 421 -112 12 14 107 184 107 192 0 8 -95 179 -107 192 -2 2 -51 -11
-110 -27 -59 -17 -111 -28 -116 -25 -14 8 34 146 79 230 34 64 39 80 30 97
-11 21 -11 21 -30 -3 -37 -46 -99 -185 -119 -263 -11 -44 -21 -81 -23 -82 -8
-8 -147 -41 -151 -36 -6 10 20 146 39 212 10 30 37 94 62 142 131 255 354 434
626 503 66 17 92 28 97 41 14 39 20 74 13 73 -5 0 -46 -9 -93 -19z m-310 -967
c16 -27 30 -54 30 -60 0 -10 -52 -13 -227 -13 -124 0 -223 3 -219 8 6 6 351
107 378 111 5 1 21 -20 38 -46z"/>
<path d="M990 2057 c-87 -34 -184 -90 -232 -134 l-26 -25 -51 28 c-27 16 -52
26 -55 23 -3 -3 78 -151 180 -330 135 -236 183 -328 176 -339 -5 -8 -68 -120
-141 -247 -73 -128 -137 -233 -142 -233 -23 0 -104 141 -157 273 -7 17 -19 27
-32 27 -25 0 -25 -3 0 -74 25 -74 70 -158 120 -224 22 -29 40 -57 40 -62 0 -6
-11 -28 -25 -50 -28 -44 -30 -50 -15 -50 8 0 369 202 572 321 36 21 72 39 78
39 11 0 128 -66 433 -242 55 -32 66 -42 57 -53 -24 -29 -128 -91 -205 -122
-55 -22 -82 -39 -87 -54 -5 -12 -7 -24 -5 -26 3 -2 41 10 86 26 88 32 161 73
229 128 l42 34 55 -31 c30 -17 55 -28 55 -25 0 8 -145 267 -285 510 -63 109
-84 154 -77 165 5 8 69 120 141 248 73 128 138 231 144 229 22 -6 104 -139
132 -213 18 -48 35 -76 47 -80 11 -3 22 -3 25 -1 18 18 -82 229 -143 304 -19
23 -34 46 -34 52 0 6 12 30 26 52 14 22 24 45 22 50 -2 5 -149 -74 -327 -176
-178 -102 -328 -185 -334 -185 -13 0 -485 268 -492 279 -12 21 117 105 217
141 72 26 73 27 83 58 8 28 7 28 -95 -11z m366 -654 c86 -56 66 -198 -34 -233
-151 -53 -244 171 -101 243 39 20 96 16 135 -10z"/>
<path d="M1765 1422 c-21 -37 -46 -81 -56 -97 l-18 -31 55 -94 c31 -52 57 -96
58 -97 1 -2 51 11 111 27 60 16 111 27 114 25 12 -12 -27 -129 -70 -213 -42
-83 -46 -97 -35 -114 13 -18 15 -16 44 29 46 71 80 150 102 238 11 43 21 79
23 81 10 9 143 42 149 36 4 -4 1 -41 -7 -82 -66 -376 -350 -682 -719 -775 -93
-23 -94 -25 -110 -87 -6 -26 -5 -27 26 -22 80 14 198 48 266 76 88 36 225 125
304 197 173 157 305 424 333 672 l6 56 70 19 c38 11 69 23 70 29 0 8 -456 139
-652 188 -23 6 -29 0 -64 -61z m459 -131 c-5 -5 -88 -30 -184 -56 -96 -26
-180 -50 -187 -52 -12 -5 -72 82 -73 105 0 9 52 12 227 12 130 0 223 -4 217
-9z"/>
<path d="M230 1151 c0 -47 53 -221 94 -307 123 -259 328 -447 593 -544 84 -30
222 -60 279 -60 32 0 34 -3 48 -53 8 -28 18 -64 22 -80 3 -15 9 -27 13 -27 7
0 192 664 191 685 0 6 -43 34 -95 64 l-95 53 -93 -52 c-50 -29 -94 -54 -96
-56 -3 -2 8 -54 24 -114 15 -61 25 -113 22 -116 -11 -11 -151 37 -225 77 -47
26 -80 38 -92 34 -32 -10 -24 -22 42 -61 76 -44 141 -70 232 -94 l70 -17 17
-64 c27 -95 28 -92 -37 -84 -131 16 -288 76 -402 154 -217 147 -363 369 -416
633 -9 40 -96 67 -96 29z m1050 -583 c0 -127 -2 -229 -4 -227 -10 10 -107 383
-102 394 4 12 81 62 99 64 4 1 7 -103 7 -231z"/>
</g>
</svg>
